<?xml version="1.0" encoding="utf-8"?>
<svg viewBox="90.272 49.205 305.852 408.784" xmlns="http://www.w3.org/2000/svg">
  <path class="cls-1" d="M 322.602 427.11 C 322.602 444.167 287.017 457.989 243.197 457.989 C 199.378 457.989 163.794 444.167 163.794 427.11 C 163.794 410.052 199.378 396.23 243.197 396.23 C 287.017 396.23 322.602 410.052 322.602 427.11 Z" style="isolation: isolate; opacity: 0.3;" transform="matrix(1, 0, 0, 1, 0, 7.105427357601002e-15)"/>
  <path class="cls-2" d="M 243.197 413.876 C 301.428 332.412 384.361 301.239 384.361 204.778 C 384.361 125.668 324.072 60.968 243.197 60.968 C 162.323 60.968 102.035 125.668 102.035 204.778 C 102.035 301.239 184.968 332.707 243.197 413.876 Z" style="fill: rgb(22, 191, 98);" transform="matrix(1, 0, 0, 1, 0, 7.105427357601002e-15)"/>
  <path class="cls-3" d="M 243.197 425.639 C 239.41 425.707 235.854 423.815 233.786 420.64 C 220.141 402.079 204.993 384.669 188.497 368.585 C 183.203 363.293 177.91 357.999 172.322 352.999 C 162.029 343 151.736 333.001 142.325 323.002 C 113.211 291.828 90.272 257.126 90.272 204.778 C 90.272 119.493 155.559 49.205 243.197 49.205 C 330.836 49.205 396.124 119.493 396.124 204.778 C 396.124 257.126 373.185 291.828 344.07 323.002 C 334.659 333.001 324.367 343 314.073 352.999 C 308.779 358.293 303.192 363.587 297.898 368.585 C 281.344 384.614 266.193 402.03 252.608 420.64 C 250.544 423.815 246.989 425.707 243.197 425.639 Z M 235.845 403.877 C 238.198 407.111 240.845 410.346 243.197 413.876 C 245.551 410.64 248.197 407.111 250.55 403.877 C 268.195 380.938 287.9 362.116 306.427 344.177 C 347.894 304.18 384.361 268.595 384.361 204.778 C 384.361 125.668 324.072 60.968 243.197 60.968 C 162.323 60.968 102.035 125.668 102.035 204.778 C 102.035 268.595 138.502 304.18 179.968 344.471 C 198.496 362.116 218.2 381.232 235.845 403.877 Z" style="fill: rgb(255, 255, 255); fill-rule: evenodd;" transform="matrix(1, 0, 0, 1, 0, 7.105427357601002e-15)"/>
  <path class="cls-4" d="M 313.603 202.132 C 313.603 256.329 254.932 290.205 207.995 263.105 C 161.058 236.008 161.058 168.258 207.995 141.161 C 218.7 134.982 230.84 131.726 243.197 131.726 C 282.082 131.726 313.603 163.249 313.603 202.132 Z" style="fill: rgb(255, 255, 255);" transform="matrix(1, 0, 0, 1, 0, 7.105427357601002e-15)"/>
</svg>